<?xml version="1.0" ?>
<svg version="1.1" viewBox="0 0 24 24" xmlns="http://www.w3.org/2000/svg" xmlns:sketch="http://www.bohemiancoding.com/sketch/ns" xmlns:xlink="http://www.w3.org/1999/xlink">
<title/>
<desc/>
<defs/>
<g fill="none" fill-rule="evenodd" id="miu" stroke="none" stroke-width="1">
<g id="Artboard-1" transform="translate(-899.000000, -299.000000)">
<g id="slice" transform="translate(215.000000, 119.000000)"/>
<path style="fill:#C5C5C5" d="M910.00265,309.925783 L907.464466,312.463967 L906.050253,311.049754 L911,306.100006 L915.949747,311.049754 L914.535534,312.463967 L912.001088,309.929521 L912.001088,321 L910.00265,321 L910.00265,309.925783 Z M905,313.997206 L904.674206,313.997131 L903.973178,313.940988 C901.708243,313.593583 900,311.764626 900,309.572042 C900,308.137521 900.734966,306.836489 901.912985,306.019173 C901.628479,303.850891 903.460766,302.286258 905.375,302.286258 C905.938771,302.286258 906.483332,302.412496 906.969711,302.646025 C907.729675,301.504761 909.910341,300 912.5625,300 C916.09345,300 919.040554,302.452518 919.450789,305.660079 C920.56012,306.019173 922,307.657641 922,309.572042 C922,311.764626 920.291757,313.593583 917.950794,313.949691 L917.247324,314 L917,313.999944 L917,311.99996 L917.174206,312 L917.723178,311.961297 C919.045116,311.758706 920,310.737221 920,309.5684 C920,308.552512 919.278783,307.636759 918.19121,307.286053 L917.511567,307.066891 L917.498907,306.354374 C917.45637,303.960374 915.277369,302 912.5625,302 C910.638388,302 908.925929,302.995106 908.11128,304.510772 L907.470936,305.702142 L906.518638,304.740479 C906.235808,304.454867 905.824346,304.284298 905.375,304.284298 C904.527984,304.284298 903.875,304.880942 903.875,305.570879 C903.875,305.742025 903.913616,305.907243 903.988558,306.062017 L904.434324,306.982638 L903.500972,307.404741 C902.579121,307.821643 902,308.656789 902,309.5684 C902,310.737221 902.954884,311.758706 904.200794,311.952601 L904.75,311.99713 L905,311.997188 L905,313.997206 L905,313.997206 Z" fill="#000000" id="cloud-cloud_upload-arrow-up-2-glyph"/>
</g>
</g>
</svg>