<svg xmlns="http://www.w3.org/2000/svg" viewBox="0 0 260 260" width="346.667" height="346.667" xmlns:v="https://vecta.io/nano"><path fill="#192226" d="M0 0h260v260H0z"/><path d="M14.025 0h8.952c-2.511 5.065-5.592 9.634-9.498 13.535C9.59 17.419 5.04 20.482 0 22.981v-8.953c2.804-1.808 5.403-3.859 7.76-6.213C10.134 5.444 12.203 2.826 14.025 0zm245.98 160.46c-3.75 7.79-6.461 16.616-8.38 26.221-3.606 18.051-8.024 34.653-19.185 45.813s-27.778 15.555-45.828 19.169c-9.568 1.916-18.36 4.613-26.121 8.339h-19.828c10.227-7.862 23.371-12.822 38.447-15.841 18.05-3.614 34.669-8.009 45.828-19.169s15.578-27.761 19.185-45.813c3.016-15.098 7.991-28.271 15.882-38.521v19.8zm-247.53-17.98C7.402 147.553 3.3 153.603.002 160.455v-19.803a58.143 58.143 0 0 1 4.972-5.674l.101.088-.094-.095c10.816-10.815 26.091-17.205 44.128-20.816 18.049-3.615 34.669-8.01 45.828-19.169s15.579-27.761 19.184-45.813 10.012-33.354 20.853-44.195l.104.09-.097-.097a58.139 58.139 0 0 1 5.681-4.975h19.828c-6.868 3.297-12.93 7.399-18.007 12.477l-.086-.086.079.092c-10.842 10.842-17.248 26.145-20.853 44.196s-8.025 34.653-19.184 45.813-27.779 15.554-45.828 19.169c-18.037 3.612-33.313 10.001-44.128 20.816l-.086-.086.085.09zM208.275 0h6.569c-5.172 1.435-10.596 2.622-16.154 3.735-18.037 3.612-33.313 10.001-44.127 20.816l-.017-.016.01.022c-10.826 10.857-17.232 26.16-20.838 44.211s-8.017 34.661-19.184 45.813-27.795 15.539-45.844 19.154c-18.038 3.611-33.313 10-44.128 20.816l-.016-.017.01.023c-10.83 10.87-17.237 26.17-20.842 44.22-1.105 5.528-2.284 10.92-3.71 16.062v-6.57c.855-3.531 1.625-7.154 2.361-10.84 3.605-18.052 9.996-33.37 20.837-44.212l.028.015-.021-.021c10.816-10.81 26.091-17.2 44.128-20.81 18.05-3.614 34.661-8.017 45.828-19.168s15.594-27.746 19.2-45.797 9.996-33.37 20.838-44.211l.027.014-.021-.02c10.81-10.818 26.09-17.206 44.12-20.819 3.72-.744 7.38-1.523 10.94-2.386zm51.73 14.028v8.953c-9.434 4.675-20.586 7.367-32.35 9.723-18.037 3.611-33.313 10-44.127 20.816l-.031-.031.024.038c-10.842 10.842-17.232 26.16-20.838 44.211s-8.036 34.65-19.2 45.796c-11.167 11.152-27.778 15.555-45.828 19.17-18.038 3.611-33.313 10-44.128 20.816l-.031-.031.025.037c-10.842 10.842-17.232 26.16-20.838 44.211-2.344 11.735-5.038 22.855-9.702 32.263h-8.952c6.745-10.46 10.096-23.77 12.935-37.981 3.606-18.051 9.996-33.369 20.838-44.211l.056.043-.049-.05c10.815-10.816 26.09-17.204 44.127-20.817 18.05-3.613 34.662-8.017 45.829-19.168s15.594-27.746 19.199-45.797 9.996-33.37 20.838-44.211l.057.044-.05-.051c10.815-10.816 26.091-17.205 44.128-20.816 14.24-2.856 27.59-6.199 38.07-12.96zm0 46.127v2.435l-2.047.416c-18.038 3.612-33.313 10.002-44.129 20.816l-.013-.013.007.02c-10.842 10.842-17.232 26.16-20.838 44.211s-8.036 34.65-19.199 45.797-27.779 15.554-45.829 19.168c-18.038 3.612-33.313 10.002-44.128 20.816l-.013-.013.006.02c-10.841 10.842-17.231 26.16-20.837 44.212l-.397 1.96h-2.431l.816-3.976c3.605-18.051 9.996-33.369 20.837-44.211l.021.008-.014-.015c10.815-10.815 26.09-17.204 44.128-20.816 18.049-3.614 34.661-8.018 45.828-19.168s15.594-27.746 19.2-45.798 9.996-33.37 20.837-44.211l.021.008-.015-.014c10.815-10.815 26.091-17.205 44.128-20.817l4.05-.84zm0 24.419v.892c-11.064 3.786-20.578 9.121-27.994 16.537l-.008-.007.001.014c-10.825 10.856-17.231 26.16-20.837 44.211s-8.018 34.661-19.185 45.813-27.794 15.539-45.844 19.153c-18.038 3.612-33.313 10.001-44.128 20.816l-.007-.007.001.013c-7.408 7.43-12.747 16.941-16.535 27.991h-.877c3.796-11.333 9.19-21.081 16.745-28.657h.013l-.006-.006c10.815-10.816 26.091-17.205 44.127-20.816 18.05-3.615 34.665-8.006 45.844-19.154 11.172-11.139 15.594-27.745 19.2-45.797s9.996-33.369 20.822-44.227h.013l-.006-.006c7.58-7.527 17.33-12.927 28.68-16.725zm0 16.105v11.046c-3.713 2.379-7.109 5.073-10.154 8.117l-.043-.042.037.049c-10.826 10.856-17.217 26.176-20.822 44.227s-8.028 34.657-19.2 45.798c-11.179 11.147-27.794 15.538-45.844 19.152-18.037 3.612-33.313 10.002-44.128 20.816l-.042-.042.036.049c-3.037 3.046-5.725 6.441-8.1 10.15h-11.043c3.227-6.538 7.202-12.33 12.075-17.218l.039.025-.033-.032c10.815-10.816 26.091-17.204 44.129-20.817 18.049-3.613 34.664-8.006 45.844-19.152 11.171-11.14 15.594-27.746 19.199-45.797s9.996-33.37 20.822-44.227l.039.026-.033-.033c4.85-4.9 10.64-8.88 17.19-12.11zm0 13.86v1.739a58.833 58.833 0 0 0-7.441 6.28l-.008-.007.001.013c-10.826 10.857-17.216 26.175-20.822 44.227s-8.028 34.657-19.2 45.797c-11.178 11.147-27.793 15.538-45.843 19.153-18.038 3.612-33.313 10.001-44.128 20.816l-.007-.008v.014a59.215 59.215 0 0 0-6.265 7.438h-1.738a59.673 59.673 0 0 1 6.984-8.464l.008.002-.005-.006c10.816-10.814 26.091-17.204 44.129-20.816 18.049-3.614 34.664-8.006 45.843-19.152 11.171-11.141 15.595-27.746 19.2-45.798s10-33.373 20.826-44.23l.008.003-.006-.005c2.59-2.56 5.42-4.89 8.48-6.98zm0 93.72v6.57c-3.23 11.649-7.727 22.014-15.475 29.75-7.73 7.721-18.072 12.195-29.69 15.419h-6.568c13.728-3.329 26.027-7.927 34.896-16.782 8.89-8.87 13.51-21.2 16.84-34.96zM60.155-.001h2.434c-3.54 17.289-8.044 33.094-18.803 43.837C33.042 54.564 17.259 59.045.004 62.588v-2.434c16.465-3.483 31.442-8.024 41.766-18.333C52.109 31.497 56.673 16.497 60.155-.001zm24.438 0h.877c-1.747 5.097-3.164 10.522-4.303 16.221-3.605 18.051-8.017 34.661-19.184 45.813S34.189 77.571 16.139 81.186C10.47 82.321 5.075 83.73.005 85.465v-.892c4.876-1.632 10.046-2.969 15.467-4.054 18.049-3.614 34.664-8.006 45.844-19.153C72.487 50.226 76.91 33.62 80.515 15.568c1.09-5.455 2.434-10.661 4.078-15.569zm16.112 0h11.043c-6.093 9.515-10.128 21.088-12.723 34.077-3.605 18.051-8.028 34.657-19.2 45.797C68.647 91.02 52.031 95.411 33.982 99.025c-12.961 2.596-24.496 6.625-33.974 12.7v-11.046c7.951-3.924 17.013-6.741 26.906-8.722 18.049-3.614 34.665-8.006 45.843-19.153 11.172-11.14 15.594-27.746 19.2-45.797C93.94 17.084 96.764 7.985 100.708 0zm13.85 0h1.737c-7.129 9.994-11.711 22.539-14.557 36.789-3.606 18.051-8.029 34.658-19.2 45.797-11.179 11.146-27.794 15.538-45.844 19.152-14.224 2.85-26.73 7.425-36.687 14.537v-1.739c9.785-6.705 21.922-11.068 35.664-13.82 18.05-3.614 34.665-8.006 45.844-19.153 11.171-11.14 15.594-27.746 19.2-45.797 2.75-13.769 7.12-25.948 13.84-35.769z" fill="#004587"/><path d="M252.95 260a44.458 44.458 0 0 0 3.692-3.297 45.167 45.167 0 0 0 3.354-3.76v7.06h-7.04zM43.07 173.08c-10.826 10.856-17.231 26.16-20.837 44.211-3.286 16.45-7.24 31.69-16.362 42.71H0v-7.057c8.741-10.965 12.61-25.932 15.831-42.054 3.605-18.052 10.012-33.354 20.854-44.195l.053.04-.046-.047c10.815-10.815 26.09-17.204 44.128-20.816 18.049-3.615 34.669-8.01 45.828-19.168s15.579-27.761 19.184-45.813 10.012-33.354 20.854-44.195l.053.04-.047-.046c10.816-10.816 26.091-17.205 44.129-20.817 16.16-3.233 31.17-7.094 42.14-15.869h7.05v5.873c-11.037 9.144-26.322 13.085-42.797 16.384-18.037 3.612-33.313 10.001-44.127 20.816l-.062-.061.054.067c-10.825 10.857-17.23 26.16-20.837 44.211s-8.017 34.661-19.184 45.812-27.794 15.539-45.843 19.153c-18.037 3.612-33.313 10.001-44.128 20.816l-.061-.061.061.07zM5.872 0a44.96 44.96 0 0 1-2.824 3.104A44.259 44.259 0 0 1 0 5.872V0zm20.575 0h1.451c-2.768 6.415-6.301 12.151-11.055 16.898C12.106 21.628 6.391 25.143 0 27.899v-1.451C5.984 23.76 11.349 20.37 15.835 15.89 20.339 11.394 23.747 6.009 26.447 0zm38.169 0h9.933a141.24 141.24 0 0 0-1.787 7.82c-3.606 18.051-8.029 34.658-19.2 45.797C42.383 64.764 25.768 69.155 7.718 72.77a141.803 141.803 0 0 0-7.717 1.765v-9.913c17.911-3.601 34.377-8.019 45.471-19.096C56.578 34.435 61.02 17.946 64.616 0zm30.661 0h3.434c-3.609 7.654-6.237 16.286-8.109 25.66-3.605 18.051-8.017 34.661-19.184 45.813S43.623 87.011 25.574 90.626C16.229 92.497 7.627 95.113.001 98.705v-3.443c7.023-3.047 14.814-5.328 23.202-7.007 18.049-3.615 34.664-8.006 45.844-19.153 11.171-11.14 15.594-27.746 19.2-45.797C89.928 14.883 92.215 7.056 95.277 0zm67.204 0h2.161c-8.05 3.5-15.088 8.01-20.857 13.779l-.012-.012.006.019c-10.842 10.842-17.248 26.145-20.854 44.196s-8.024 34.653-19.184 45.813-27.778 15.554-45.828 19.168c-18.038 3.612-33.313 10.001-44.128 20.816l-.012-.012.006.019C8.015 149.55 3.506 156.575.004 164.602v-2.155c3.402-7.41 7.705-13.923 13.109-19.327l.018.005-.012-.012c10.816-10.815 26.091-17.205 44.128-20.816 18.049-3.615 34.669-8.01 45.828-19.169s15.579-27.761 19.184-45.812 10.012-33.354 20.853-44.195l.019.005-.012-.012c5.4-5.423 11.93-9.725 19.36-13.126zm60.96 0h11.789c-9.176 4.315-19.888 6.872-31.154 9.128-18.038 3.612-33.313 10.002-44.129 20.816l-.024-.024.019.031c-10.826 10.857-17.232 26.16-20.838 44.211s-8.018 34.662-19.185 45.812c-11.171 11.156-27.794 15.539-45.843 19.154-18.038 3.611-33.313 10.001-44.128 20.816l-.024-.025.019.031c-10.827 10.857-17.232 26.16-20.838 44.211-2.244 11.236-4.8 21.912-9.104 31.063v-11.787c2.408-7.038 4.154-14.697 5.74-22.639 3.606-18.051 9.997-33.369 20.838-44.211l.048.035-.042-.041c10.816-10.816 26.09-17.205 44.128-20.816 18.05-3.615 34.661-8.018 45.828-19.169s15.595-27.746 19.2-45.797 9.996-33.37 20.838-44.211l.048.036-.042-.042C167.4 15.766 182.676 9.377 200.713 5.765c7.96-1.59 15.66-3.342 22.72-5.759zm36.56 26.448v1.451c-8.676 3.742-18.592 6.086-28.986 8.167-18.037 3.612-33.313 10.001-44.128 20.817l-.009-.01.002.016c-10.842 10.841-17.231 26.16-20.838 44.21s-8.035 34.65-19.199 45.798-27.778 15.555-45.828 19.168c-18.038 3.613-33.313 10.002-44.128 20.816l-.009-.009.003.016c-10.842 10.842-17.232 26.16-20.838 44.211-2.07 10.364-4.412 20.249-8.144 28.899h-1.451c3.993-8.887 6.438-19.137 8.588-29.906 3.605-18.052 9.996-33.37 20.838-44.211l.022.009-.016-.016c10.815-10.815 26.091-17.204 44.128-20.817 18.05-3.614 34.661-8.017 45.828-19.168s15.595-27.746 19.2-45.797 9.996-33.37 20.838-44.211l.022.009-.016-.016c10.814-10.815 26.09-17.204 44.127-20.817 10.81-2.158 21.1-4.604 30.01-8.607zm0 38.175v9.913c-14.685 3.807-27.175 9.815-36.411 19.051l-.04-.04.033.046c-10.825 10.857-17.216 26.175-20.822 44.227s-8.027 34.657-19.199 45.797c-11.179 11.146-27.794 15.539-45.844 19.152-18.037 3.613-33.312 10.002-44.127 20.816l-.041-.04.034.047c-9.226 9.253-15.23 21.745-19.035 36.407h-9.933l.055-.271c3.606-18.051 9.996-33.369 20.838-44.211l.054.041-.048-.047c10.815-10.816 26.091-17.205 44.128-20.816 18.049-3.615 34.661-8.018 45.829-19.169 11.162-11.147 15.594-27.746 19.199-45.797s9.996-33.37 20.838-44.211l.054.042-.048-.048c10.815-10.815 26.091-17.204 44.129-20.816l.36-.074zm0 30.639v3.443c-7.094 3.341-13.343 7.525-18.555 12.737l-.017-.017.01.023c-10.826 10.856-17.232 26.159-20.838 44.211s-8.017 34.661-19.185 45.813-27.794 15.538-45.844 19.152c-18.037 3.612-33.312 10.002-44.128 20.817l-.016-.016.009.022c-5.205 5.219-9.387 11.465-12.728 18.551h-3.434c3.502-8.069 8.015-15.131 13.79-20.923l.022.009-.015-.016c10.816-10.814 26.091-17.204 44.128-20.816 18.05-3.614 34.665-8.006 45.844-19.152 11.172-11.141 15.594-27.746 19.199-45.798s9.996-33.369 20.822-44.227l.021.009-.015-.015c5.8-5.75 12.86-10.273 20.94-13.778zm0 67.188v2.155c-3.086 7.073-5.39 14.925-7.078 23.379-3.605 18.052-8.025 34.654-19.185 45.813s-27.778 15.554-45.828 19.168c-8.416 1.686-16.23 3.976-23.271 7.038h-2.161c7.424-3.399 15.749-5.898 24.766-7.704 18.05-3.614 34.669-8.01 45.827-19.169s15.579-27.761 19.186-45.812c1.79-9.06 4.31-17.42 7.73-24.87zm0 60.99v11.787c-2.611 5.551-5.864 10.54-10.081 14.75-4.197 4.191-9.165 7.428-14.688 10.025h-11.789c8.932-3.057 16.863-7.178 23.099-13.403 6.25-6.25 10.39-14.2 13.46-23.16z" fill="#73797c"/><path d="M196.64 66.655c-10.842 10.841-17.231 26.16-20.838 44.211s-8.035 34.649-19.199 45.797-27.778 15.554-45.828 19.169c-18.038 3.612-33.313 10.001-44.128 20.816l-.021-.02.014.026c-10.842 10.842-17.232 26.16-20.838 44.212-1.326 6.642-2.765 13.085-4.609 19.134H35.4c2.56-7.275 4.38-15.238 6.031-23.505 3.606-18.052 10.012-33.355 20.838-44.211l.026.013-.02-.02c10.816-10.815 26.091-17.204 44.128-20.816 18.049-3.615 34.673-7.998 45.843-19.153s15.578-27.761 19.183-45.813 10.013-33.354 20.838-44.211l.025.012-.018-.019c10.815-10.816 26.091-17.205 44.128-20.817 8.296-1.661 16.29-3.486 23.592-6.055v5.79c-6.076 1.852-12.55 3.296-19.221 4.632-18.037 3.612-33.313 10.001-44.128 20.816l-.02-.021.03.028zM41.2 0c-3.168 10.392-7.535 19.617-14.591 26.663C19.57 33.693 10.366 38.041.002 41.2v-5.794c8.586-3.021 16.215-7.07 22.252-13.098C28.308 16.263 32.376 8.613 35.407 0H41.2zM260 137.76v2.261c-8.053 10.301-13.109 23.607-16.16 38.883-3.605 18.051-8.025 34.653-19.184 45.813s-27.778 15.554-45.828 19.168c-15.255 3.055-28.532 8.096-38.809 16.121h-2.262c10.441-8.613 24.181-13.947 40.063-17.128 18.049-3.614 34.668-8.01 45.827-19.169s15.579-27.761 19.185-45.813c3.17-15.9 8.52-29.67 17.16-40.13zm0 33.94v15.961a148.98 148.98 0 0 0-1.344 6.056c-3.605 18.052-8.035 34.649-19.199 45.797s-27.778 15.554-45.828 19.169c-2.018.404-3.999.842-5.945 1.318h-15.932c5.66-2.074 11.748-3.717 18.188-5.008 18.05-3.614 34.669-8.009 45.827-19.168s15.579-27.762 19.185-45.813c1.29-6.5 2.94-12.62 5.04-18.32zM137.76 0h2.262a58.05 58.05 0 0 0-5.319 4.696l-.014-.013.008.019c-10.842 10.841-17.248 26.144-20.854 44.196s-8.025 34.653-19.184 45.812-27.779 15.554-45.829 19.169c-18.037 3.612-33.313 10.001-44.128 20.817l-.013-.013.006.019a58.513 58.513 0 0 0-4.693 5.313v-2.261a57.487 57.487 0 0 1 3.685-4.06l.023.008-.016-.015c10.815-10.816 26.091-17.204 44.128-20.816 18.05-3.614 34.669-8.01 45.828-19.169s15.579-27.761 19.184-45.813 10.012-33.354 20.853-44.195l.022.009-.016-.015c1.29-1.3 2.65-2.529 4.07-3.697zm33.99 0h15.933c-15.452 3.778-28.577 9.893-38.183 19.499l-.057-.056.05.063c-10.842 10.842-17.231 26.16-20.838 44.211s-8.036 34.65-19.2 45.797-27.778 15.554-45.828 19.169c-18.037 3.612-33.313 10.001-44.128 20.816l-.057-.058.051.065c-9.6 9.61-15.712 22.74-19.488 38.16v-15.961c3.735-10.158 8.859-18.938 15.806-25.884l.06.046-.053-.053C26.633 135 41.909 128.61 59.946 124.998c18.049-3.615 34.669-8.009 45.828-19.168s15.578-27.761 19.184-45.813 10.012-33.354 20.854-44.196l.059.047-.053-.053c6.96-6.959 15.75-12.083 25.94-15.815zM260 86.363v3.685c-9.634 3.688-17.977 8.665-24.631 15.319l-.012-.012.006.018c-10.826 10.857-17.217 26.175-20.822 44.227s-8.028 34.657-19.199 45.797c-11.18 11.147-27.795 15.539-45.844 19.153-18.037 3.612-33.313 10.001-44.128 20.816l-.012-.013.005.019c-6.644 6.662-11.616 15.004-15.3 24.627h-3.686c3.768-10.766 9.032-20.047 16.289-27.324l.018.004-.011-.01c10.815-10.816 26.09-17.205 44.128-20.817 18.049-3.614 34.664-8.006 45.844-19.153 11.171-11.139 15.594-27.746 19.199-45.797s9.996-33.369 20.822-44.226l.018.004-.012-.011c7.25-7.278 16.53-12.547 27.31-16.317zm0 36.477v5.739l-.715.701-.016-.016.01.022c-10.826 10.857-17.217 26.176-20.822 44.227s-8.028 34.657-19.199 45.797c-11.18 11.146-27.795 15.539-45.844 19.153-18.037 3.612-33.313 10.001-44.129 20.816l-.016-.017.01.023-.696.711h-5.734a57.73 57.73 0 0 1 3.407-3.734l.025.012-.018-.017c10.815-10.816 26.09-17.205 44.127-20.816 18.051-3.615 34.666-8.006 45.844-19.153 11.172-11.14 15.595-27.745 19.199-45.797s9.997-33.37 20.822-44.227l.024.011-.017-.017c1.21-1.17 2.45-2.31 3.75-3.4zM86.38 0h3.685c-2.32 6.059-4.129 12.625-5.522 19.6-3.605 18.051-8.028 34.657-19.2 45.797C54.165 76.544 37.55 80.936 19.501 84.55 12.56 85.94 6.029 87.741.003 90.047v-3.685c5.263-1.841 10.883-3.325 16.8-4.51 18.05-3.614 34.665-8.006 45.844-19.153 11.171-11.14 15.594-27.746 19.2-45.797C83.035 10.951 84.527 5.295 86.38 0zm36.473 0h5.733c-10.405 10.81-16.599 25.855-20.127 43.516-3.605 18.051-8.028 34.657-19.2 45.797-11.179 11.147-27.794 15.539-45.843 19.153-17.638 3.53-32.638 9.72-43.407 20.11v-5.739c10.479-8.773 24.342-14.185 40.391-17.399 18.05-3.615 34.665-8.006 45.844-19.153 11.171-11.139 15.594-27.746 19.2-45.797 3.2-16.067 8.62-29.971 17.41-40.49zM260 247.37c-1.684 2.506-3.572 4.84-5.709 6.973-2.118 2.115-4.432 3.985-6.914 5.654h-2.553c3.072-1.915 5.908-4.111 8.459-6.661 2.573-2.573 4.787-5.437 6.717-8.54v2.58zM247.38 0c-10.611 7.135-24.302 10.57-38.93 13.5-18.037 3.611-33.312 10.001-44.128 20.816l-.008-.008.001.015c-10.826 10.857-17.232 26.16-20.838 44.211s-8.018 34.662-19.184 45.813-27.794 15.539-45.844 19.153c-18.037 3.612-33.313 10.001-44.128 20.817l-.007-.008.001.014c-10.826 10.857-17.232 26.16-20.838 44.211-2.915 14.6-6.358 28.25-13.474 38.84V244.8c6.437-10.354 9.693-23.384 12.467-37.273 3.605-18.051 10.016-33.357 20.857-44.199l.007.002-.004-.004c10.816-10.815 26.09-17.205 44.128-20.817 18.049-3.614 34.669-8.009 45.828-19.168s15.579-27.761 19.184-45.813 10.016-33.357 20.857-44.199l.007.001-.004-.004c10.816-10.815 26.091-17.205 44.128-20.817 13.92-2.789 26.99-6.043 37.36-12.508h2.56zM7.08 0h3.536a45.776 45.776 0 0 1-4.888 5.785 45.595 45.595 0 0 1-5.729 4.834V7.082A44.75 44.75 0 0 0 3.713 3.77 44.784 44.784 0 0 0 7.08 0zM130 .006l.019.006-.02-.012h1.504l-.76.744-.005-.005.002.016c-10.841 10.841-17.251 26.14-20.857 44.191S101.858 79.6 90.699 90.759s-27.778 15.554-45.828 19.168c-18.037 3.612-33.313 10.002-44.128 20.817l-.005-.006.003.016-.744.761v-1.507l.016.006-.007-.02c10.816-10.815 26.091-17.205 44.128-20.817 18.049-3.615 34.669-8.009 45.828-19.168s15.579-27.761 19.184-45.813c3.61-18.048 10.02-33.351 20.86-44.193zm2 2l.016.002-.01-.009A57.58 57.58 0 0 1 134.111 0h2.154a57.491 57.491 0 0 0-3.252 3.007l-.008-.009.006.019c-10.842 10.841-17.252 26.141-20.857 44.192s-8.025 34.653-19.185 45.813-27.778 15.554-45.828 19.169c-18.038 3.612-33.313 10.001-44.128 20.816l-.008-.009.006.02a57.519 57.519 0 0 0-3.007 3.252v-2.162A56.613 56.613 0 0 1 2 132.006l.016.003-.01-.01c10.816-10.815 26.091-17.204 44.128-20.816 18.05-3.615 34.669-8.01 45.829-19.169s15.578-27.761 19.184-45.812c3.6-18.049 10-33.351 20.85-44.193zm23.57 23.575l.02.005-.013-.012c10.816-10.815 26.091-17.204 44.128-20.816 6.824-1.366 13.442-2.845 19.639-4.758h1.426c-6.506 2.08-13.5 3.652-20.723 5.099-18.038 3.612-33.313 10.001-44.129 20.816l-.01-.011.004.018c-10.842 10.842-17.248 26.144-20.854 44.196s-8.025 34.653-19.184 45.812-27.779 15.555-45.828 19.169c-18.038 3.612-33.313 10.001-44.128 20.816l-.011-.011.004.018c-10.857 10.83-17.263 26.14-20.868 44.19-1.434 7.17-2.996 14.12-5.059 20.59v-1.428c1.896-6.156 3.364-12.727 4.718-19.503 3.605-18.052 10.012-33.354 20.853-44.196l.019.006-.013-.012c10.816-10.815 26.091-17.205 44.128-20.816 18.05-3.615 34.669-8.01 45.829-19.169s15.578-27.762 19.184-45.812 10.02-33.356 20.86-44.197zm18.19 18.177l.011.005-.009-.008c10.816-10.815 26.092-17.205 44.129-20.816 16.14-3.233 31.13-7.098 42.11-15.857v3.538c-10.762 7.697-24.922 11.295-40.099 14.334-18.037 3.612-33.313 10.001-44.128 20.817l-.014-.015.008.021c-10.842 10.841-17.232 26.16-20.838 44.211s-8.037 34.649-19.2 45.797-27.778 15.555-45.828 19.168c-18.037 3.613-33.313 10.002-44.128 20.817l-.015-.015.008.021c-10.842 10.841-17.232 26.159-20.838 44.211-3.025 15.148-6.633 29.272-14.313 40.012H7.081c8.737-10.955 12.614-25.912 15.833-42.027 3.605-18.051 10-33.373 20.842-44.215l.01.005-.008-.007c10.816-10.816 26.091-17.205 44.128-20.817 18.049-3.614 34.661-8.017 45.828-19.169 11.164-11.147 15.594-27.745 19.199-45.796 3.61-18.042 10-33.365 20.85-44.206zm27.21 27.222l.064.051-.057-.058c10.814-10.816 26.09-17.204 44.127-20.817 5.11-1.023 10.107-2.109 14.897-3.392v10.054l-6.805 1.429c-18.037 3.612-33.313 10.001-44.129 20.816l-.063-.063.057.069c-10.842 10.841-17.232 26.16-20.838 44.211s-8.036 34.649-19.199 45.797-27.779 15.555-45.829 19.169c-18.037 3.612-33.313 10.001-44.128 20.816l-.062-.062.055.068c-10.842 10.842-17.232 26.16-20.838 44.211a332.196 332.196 0 0 1-1.408 6.719H46.757c1.275-4.763 2.354-9.728 3.37-14.81 3.606-18.052 10.012-33.355 20.837-44.212l.065.053-.059-.059c10.815-10.816 26.091-17.204 44.128-20.816 18.05-3.614 34.673-7.998 45.843-19.153s15.578-27.761 19.184-45.813c3.62-18.06 10.02-33.364 20.85-44.22zm25.31 25.311l.02.006-.013-.013c8.666-8.666 20.195-14.49 33.713-18.321v3.923c-12.217 3.824-22.678 9.407-30.691 17.419l-.01-.01.004.017c-10.826 10.857-17.217 26.176-20.822 44.227s-8.028 34.658-19.199 45.797c-11.18 11.149-27.795 15.539-45.844 19.154-18.038 3.611-33.312 10-44.128 20.816l-.01-.011.004.017c-8.005 8.02-13.583 18.48-17.406 30.68h-3.942c3.833-13.502 9.664-25.027 18.322-33.71l.019.007-.013-.014c10.816-10.814 26.091-17.204 44.128-20.816 18.05-3.614 34.673-7.998 45.843-19.152s15.579-27.762 19.185-45.813c3.61-18.06 10.01-33.36 20.84-44.219zm11.45 11.449l.014-.001-.007-.005c6.102-6.102 13.624-10.794 22.259-14.374v.461c-8.499 3.563-15.908 8.213-21.934 14.238l-.004-.006-.002.012c-10.826 10.857-17.217 26.175-20.822 44.227s-8.029 34.657-19.2 45.797c-11.179 11.146-27.794 15.539-45.843 19.153-18.038 3.612-33.313 10.001-44.129 20.816l-.005-.006-.001.013c-6.015 6.031-10.66 13.439-14.219 21.93h-.482c3.58-8.63 8.272-16.152 14.376-22.256l.012-.001-.005-.005c10.815-10.816 26.091-17.205 44.128-20.816 18.049-3.615 34.661-8.018 45.828-19.169s15.594-27.746 19.199-45.798c3.6-18.03 9.99-33.34 20.83-44.19zm16.5 16.5l.016.003-.01-.009a58.205 58.205 0 0 1 5.768-5.042v1.795a57.492 57.492 0 0 0-4.76 4.254l-.006-.006v.012c-10.826 10.857-17.217 26.175-20.822 44.227s-8.029 34.656-19.201 45.797c-11.178 11.146-27.793 15.538-45.843 19.153-18.037 3.612-33.313 10.001-44.128 20.816l-.006-.006-.001.012a57.82 57.82 0 0 0-4.242 4.757H119.2a58.408 58.408 0 0 1 5.029-5.764l.016.002-.009-.009c10.816-10.815 26.091-17.204 44.128-20.816 18.049-3.614 34.664-8.006 45.843-19.153 11.171-11.139 15.595-27.746 19.2-45.797 3.6-18.04 9.99-33.36 20.82-44.21zM46.76 0h10.052c-3.416 15.412-8.029 29.33-17.792 39.078-9.747 9.734-23.643 14.325-39.022 17.74V46.764C12.127 43.516 22.937 39 30.945 31.003 38.97 22.99 43.505 12.159 46.76 0zm31.196 0h3.942c-1.349 4.307-2.479 8.83-3.42 13.54-3.605 18.051-8.028 34.657-19.2 45.797C48.1 70.484 31.484 74.875 13.435 78.49c-4.674.936-9.163 2.059-13.437 3.396v-3.923a136.623 136.623 0 0 1 10.415-2.497c18.049-3.614 34.673-7.998 45.844-19.153s15.579-27.761 19.184-45.812c.722-3.615 1.555-7.12 2.515-10.501zm15.4 0h.482c-2.848 6.791-5.001 14.274-6.603 22.297-3.606 18.051-8.028 34.657-19.2 45.797-11.178 11.147-27.793 15.538-45.843 19.153-7.99 1.6-15.436 3.745-22.194 6.578v-.461c6.672-2.766 14.007-4.868 21.869-6.442 18.049-3.615 34.661-8.018 45.828-19.169s15.594-27.746 19.199-45.797C88.471 14.066 90.578 6.699 93.356 0zm25.842 0h1.794c-8.298 10.391-13.473 23.916-16.58 39.471-3.606 18.051-8.029 34.657-19.2 45.797-11.179 11.147-27.794 15.539-45.843 19.153-15.533 3.11-29.016 8.28-39.368 16.562v-1.795c10.213-7.824 23.327-12.764 38.36-15.774 18.05-3.614 34.665-8.006 45.844-19.153 11.171-11.139 15.594-27.746 19.2-45.797 3.01-15.054 7.96-28.209 15.8-38.46zm140.8 130.01v1.508c-10.391 10.791-16.591 25.797-20.113 43.431-3.605 18.052-8.024 34.653-19.184 45.813s-27.779 15.554-45.828 19.169c-17.619 3.528-32.603 9.707-43.368 20.072h-1.504c10.816-10.815 26.091-17.204 44.128-20.816 18.05-3.615 34.669-8.01 45.828-19.168s15.578-27.762 19.184-45.813 10.013-33.354 20.854-44.195v.01zm0 4.1v2.162c-9.041 10.56-14.592 24.625-17.85 40.939-3.607 18.052-8.025 34.654-19.185 45.813s-27.778 15.555-45.828 19.169c-16.298 3.264-30.34 8.795-40.876 17.81h-2.154c10.654-9.613 25.126-15.434 42.023-18.816 18.049-3.615 34.668-8.01 45.828-19.169s15.578-27.762 19.184-45.813c3.39-16.91 9.23-31.41 18.87-42.09zm0 85.17v1.427c-3.126 9.801-7.402 18.5-14.125 25.223-6.694 6.694-15.353 10.953-25.106 14.07h-1.426c10.195-3.146 19.249-7.47 26.189-14.41 6.97-6.97 11.31-16.07 14.47-26.31z" fill="#0099d4"/></svg>