<?xml version="1.0"?>
<svg xmlns="http://www.w3.org/2000/svg" xmlns:xlink="http://www.w3.org/1999/xlink" version="1.1" viewBox="0 0 192 192" width="16px" height="16px"><g transform=""><g fill="none" fill-rule="nonzero" stroke="none" stroke-width="1" stroke-linecap="butt" stroke-linejoin="miter" stroke-miterlimit="10" stroke-dasharray="" stroke-dashoffset="0" font-family="none" font-weight="none" font-size="none" text-anchor="none" style="mix-blend-mode: normal"><path d="M0,192v-192h192v192z"/><g fill="#c5c5c5"><g id="surface1"><path d="M77.95313,12c-9.84376,0 -17.95313,8.10937 -17.95313,17.95313v6.04687h-36v12h12v102c0,9.89063 8.10937,18 18,18h72c9.89063,0 18,-8.10937 18,-18v-102h12v-12h-36v-6.04687c0,-9.84376 -8.10937,-17.95313 -17.95313,-17.95313zM77.95313,24h24.09374c3.375,0 5.95313,2.57813 5.95313,5.95313v6.04687h-36v-6.04687c0,-3.375 2.57813,-5.95313 5.95313,-5.95313zM48,48h84v102c0,3.375 -2.625,6 -6,6h-72c-3.375,0 -6,-2.625 -6,-6zM60,60v84h12v-84zM84,60v84h12v-84zM108,60v84h12v-84z"/></g></g></g></g></svg>
