<svg width="16px" height="16px" viewBox="0 0 16 16" version="1.1" xmlns="http://www.w3.org/2000/svg" xmlns:xlink="http://www.w3.org/1999/xlink">
    <title>Document Binary Downloaded Light</title>
    <desc></desc>
    <g id="Page-1" stroke="none" stroke-width="1" fill="none" fill-rule="evenodd" transform="translate(2, 2)">
        <g fill="#424242" opacity="0.3">
            <path d="M6.88232 6.38824H6.17644C5.49524 6.38824 4.94115 6.94233 4.94115 7.62354V10.4471C4.94115 11.1283 5.49524 11.6824 6.17644 11.6824H6.88232C7.56353 11.6824 8.11762 11.1283 8.11762 10.4471V7.62354C8.11762 6.94233 7.56353 6.38824 6.88232 6.38824ZM7.05879 10.4471C7.05879 10.5444 6.97966 10.6235 6.88232 10.6235H6.17644C6.07911 10.6235 5.99997 10.5444 5.99997 10.4471V7.62354C5.99997 7.5262 6.07911 7.44707 6.17644 7.44707H6.88232C6.97966 7.44707 7.05879 7.5262 7.05879 7.62354V10.4471Z"/>
            <path d="M2.64706 10.6235H2.11765V6.91766C2.11765 6.62524 1.88065 6.38824 1.58823 6.38824H0.529412C0.236994 6.38824 0 6.62524 0 6.91766C0 7.21007 0.236994 7.44707 0.529412 7.44707H1.05882V10.6235H0.529412C0.236994 10.6235 0 10.8605 0 11.1529C0 11.4454 0.236994 11.6824 0.529412 11.6824H2.64706C2.93948 11.6824 3.17647 11.4454 3.17647 11.1529C3.17647 10.8605 2.93948 10.6235 2.64706 10.6235Z"/>
            <path d="M11.8236 6.38824H11.1177C10.4365 6.38824 9.88239 6.94233 9.88239 7.62354V10.4471C9.88239 11.1283 10.4365 11.6824 11.1177 11.6824H11.8236C12.5048 11.6824 13.0589 11.1283 13.0589 10.4471V7.62354C13.0589 6.94233 12.5048 6.38824 11.8236 6.38824ZM12 10.4471C12 10.5444 11.9209 10.6235 11.8236 10.6235H11.1177C11.0203 10.6235 10.9412 10.5444 10.9412 10.4471V7.62354C10.9412 7.5262 11.0203 7.44707 11.1177 7.44707H11.8236C11.9209 7.44707 12 7.5262 12 7.62354V10.4471Z"/>
            <path d="M1.94118 0H1.23529C0.55409 0 0 0.55409 0 1.23529V4.05882C0 4.74003 0.55409 5.29412 1.23529 5.29412H1.94118C2.62238 5.29412 3.17647 4.74003 3.17647 4.05882V1.23529C3.17647 0.55409 2.62238 0 1.94118 0ZM2.11765 4.05882C2.11765 4.15616 2.03851 4.23529 1.94118 4.23529H1.23529C1.13796 4.23529 1.05882 4.15616 1.05882 4.05882V1.23529C1.05882 1.13796 1.13796 1.05882 1.23529 1.05882H1.94118C2.03851 1.05882 2.11765 1.13796 2.11765 1.23529V4.05882Z"/>
            <path d="M7.5882 4.23529H7.05879V0.529412C7.05879 0.236994 6.8218 0 6.52938 0H5.47056C5.17814 0 4.94115 0.236994 4.94115 0.529412C4.94115 0.821829 5.17814 1.05882 5.47056 1.05882H5.99997V4.23529H5.47056C5.17814 4.23529 4.94115 4.47229 4.94115 4.7647C4.94115 5.05712 5.17814 5.29412 5.47056 5.29412H7.5882C7.88062 5.29412 8.11762 5.05712 8.11762 4.7647C8.11762 4.47229 7.88062 4.23529 7.5882 4.23529Z"/>
            <path d="M12.5294 4.23529H12V0.529412C12 0.236994 11.763 0 11.4706 0H10.4118C10.1194 0 9.88239 0.236994 9.88239 0.529412C9.88239 0.821829 10.1194 1.05882 10.4118 1.05882H10.9412V4.23529H10.4118C10.1194 4.23529 9.88239 4.47229 9.88239 4.7647C9.88239 5.05712 10.1194 5.29412 10.4118 5.29412H12.5294C12.8219 5.29412 13.0589 5.05712 13.0589 4.7647C13.0589 4.47229 12.8219 4.23529 12.5294 4.23529Z"/>
        </g>
        <circle id="Oval" fill="#27A15B" cx="11" cy="11" r="3"></circle>
    </g>
</svg>
