<?xml version="1.0" encoding="iso-8859-1"?>
<!-- Generator: Adobe Illustrator 19.0.0, SVG Export Plug-In . SVG Version: 6.00 Build 0)  -->
<svg version="1.1" id="Layer_1" xmlns="http://www.w3.org/2000/svg" xmlns:xlink="http://www.w3.org/1999/xlink" x="0px" y="0px"
	 viewBox="0 0 512 512" style="enable-background:new 0 0 512 512;" xml:space="preserve">
<g>
	<g>
		<path d="M508.217,114.548L396.636,3.731C394.007,1.117,390.625,0,386.918,0H29.692C13.706,0,0,12.303,0,28.289v454.019
			C0,498.294,13.706,512,29.692,512h454.019C499.697,512,512,498.294,512,482.308V124.493
			C512,120.76,510.862,117.181,508.217,114.548z M315.616,28.055h28.055v126.247h-28.055V28.055z M154.301,28.055h133.26v126.247
			h-133.26V28.055z M395.573,483.945H115.025v-44.888h280.548V483.945z M395.573,411.003H115.025v-43.485h280.548V411.003z
			 M395.573,339.463H115.025v-44.888h280.548V339.463z M483.711,483.945h-60.084V279.847c0-7.746-5.58-13.326-13.326-13.326H101.699
			c-7.746,0-14.729,5.58-14.729,13.326v204.099H29.692c-0.516,0-1.637-1.121-1.637-1.637V28.289c0-0.516,1.121-0.234,1.637-0.234
			h96.555v139.573c0,7.746,6.983,14.729,14.729,14.729H358.4c7.746,0,13.326-6.983,13.326-14.729V28.055h9.403l102.817,102.27
			v351.984C483.945,482.824,484.227,483.945,483.711,483.945z"/>
	</g>
</g>
<g>
</g>
<g>
</g>
<g>
</g>
<g>
</g>
<g>
</g>
<g>
</g>
<g>
</g>
<g>
</g>
<g>
</g>
<g>
</g>
<g>
</g>
<g>
</g>
<g>
</g>
<g>
</g>
<g>
</g>
</svg>
