<svg width="90" height="90" viewBox="0 0 90 90" fill="none" xmlns="http://www.w3.org/2000/svg">
<path fill-rule="evenodd" clip-rule="evenodd" d="M73.125 19.6875V33.75H85.2244L87.9412 37.2881L73.125 76.6631L70.4025 78.75H49.1785C50.6051 77.0226 51.8479 75.1376 52.8767 73.125H68.2481L81.5625 39.375H49.1785C47.9513 37.889 46.5879 36.5196 45.1077 35.2858L45.8214 34.5712L47.8126 33.75H67.5V22.5H36.5625L34.5713 21.6788L29.7731 16.875H5.625V35.1965C3.49071 36.9592 1.59685 39.0026 0 41.2702V14.0625L2.8125 11.25H30.9375L32.9287 12.0712L37.7269 16.875H70.3125L73.125 19.6875Z" fill="#424242"/>
<path d="M47.0269 54.415L33.3149 51.521L26.326 39.375V73.0313L39.1195 78.7499L37.6345 64.815L47.0269 54.415Z" fill="#EEA600"/>
<path d="M19.3369 51.521L5.625 54.415L15.0174 64.815L13.5324 78.7499L26.3259 73.0313V39.375L19.3369 51.521Z" fill="#EEA600"/>
</svg>
