<?xml version="1.0" encoding="utf-8"?>
<!-- Generator: Adobe Illustrator 24.1.2, SVG Export Plug-In . SVG Version: 6.00 Build 0)  -->
<svg version="1.1" id="Layer_1" xmlns="http://www.w3.org/2000/svg" xmlns:xlink="http://www.w3.org/1999/xlink" x="0px" y="0px"
	 viewBox="0 0 16 16" style="enable-background:new 0 0 16 16;" xml:space="preserve">
<style type="text/css">
	.st0{fill-rule:evenodd;clip-rule:evenodd;fill:#424242;}
</style>
<path class="st0" d="M1.5,2L1,2.5v3.7C1.3,6,1.7,5.8,2,5.6V3h4.3l0.9,0.9L7.5,4H14v1H7.5L7.1,5.1L6.8,5.5C7.1,5.6,7.4,5.8,7.7,6l0,0
	H14v1.5l0,0v4l0,0V13H9.4c-0.2,0.4-0.4,0.7-0.7,1h5.7l0.5-0.5V9l0,0V3.5L14.5,3H7.7L6.9,2.1L6.5,2H1.5z"/>
<path class="st0" d="M8,10.5C8,12.4,6.4,14,4.5,14S1,12.4,1,10.5S2.6,7,4.5,7S8,8.6,8,10.5z M4.5,13C5.9,13,7,11.9,7,10.5
	S5.9,8,4.5,8S2,9.1,2,10.5S3.1,13,4.5,13z"/>
</svg>
