<svg width="90" height="90" viewBox="0 0 90 90" fill="none" xmlns="http://www.w3.org/2000/svg">
<path fill-rule="evenodd" clip-rule="evenodd" d="M8.49863 11.25L5.68613 14.0625V35.1462C7.41446 33.7262 9.2994 32.4899 11.3111 31.4672V16.875H35.4377L40.2346 21.672L42.2234 22.4958H78.7562V28.1425H42.1903L40.2016 28.9663L38.2267 30.9411C40.002 31.7577 41.6867 32.7374 43.2616 33.8612L43.3553 33.7675H78.6954V42.1643H78.6971V64.6476H78.6954V73.1368H52.8706C51.8407 75.1494 50.5967 77.0344 49.1688 78.7618H81.5079L84.3204 75.9493V50.6587L84.3812 50.5975V19.6833L81.5687 16.8708H43.3884L38.5914 12.0738L36.6026 11.25H8.49863Z" fill="#424242"/>
<path d="M47.0269 54.415L33.3149 51.521L26.326 39.375V73.0313L39.1195 78.7499L37.6345 64.815L47.0269 54.415Z" fill="#EEA600"/>
<path d="M19.3369 51.521L5.625 54.415L15.0174 64.815L13.5324 78.7499L26.3259 73.0313V39.375L19.3369 51.521Z" fill="#EEA600"/>
</svg>
