<?xml version="1.0" encoding="utf-8"?>
<!-- Generator: Adobe Illustrator 25.0.1, SVG Export Plug-In . SVG Version: 6.00 Build 0)  -->
<svg version="1.1" id="Layer_1" xmlns="http://www.w3.org/2000/svg" xmlns:xlink="http://www.w3.org/1999/xlink" x="0px" y="0px"
	 viewBox="0 0 16 16" style="enable-background:new 0 0 16 16;" xml:space="preserve">
<style type="text/css">
	.st0{display:none;}
	.st1{display:inline;fill:none;stroke:#424242;stroke-width:0.5;stroke-linecap:round;stroke-linejoin:round;stroke-miterlimit:10;}
	.st2{display:inline;fill-rule:evenodd;clip-rule:evenodd;fill:#27A15B;}
	.st3{display:inline;fill:none;stroke:#999999;stroke-width:0.75;stroke-miterlimit:10;}
	.st4{display:inline;fill:#27A15B;}
	.st5{fill:#424242;}
	.st6{fill-rule:evenodd;clip-rule:evenodd;fill:#424242;}
	.st7{fill:none;stroke:#424242;stroke-width:0.5;stroke-linecap:round;stroke-linejoin:round;stroke-miterlimit:10;}
</style>
<g id="Concentric_Circle_Lines" class="st0">
	<line class="st1" x1="4.5" y1="13.2" x2="4.5" y2="12"/>
	<line class="st1" x1="4.5" y1="9.1" x2="4.5" y2="7.9"/>
	<path class="st1" d="M8.7,7.4"/>
	<path class="st1" d="M4.5,10.6"/>
	<line class="st1" x1="1.6" y1="10.5" x2="3" y2="10.5"/>
	<line class="st1" x1="6" y1="10.5" x2="7.5" y2="10.5"/>
</g>
<g id="Highlight" class="st0">
	<circle class="st1" cx="4.5" cy="10.6" r="1.3"/>
	<path class="st2" d="M8,10.5C8,12.4,6.4,14,4.5,14S1,12.4,1,10.5S2.6,7,4.5,7S8,8.6,8,10.5z M4.5,13C5.9,13,7,11.9,7,10.5
		S5.9,8,4.5,8S2,9.1,2,10.5S3.1,13,4.5,13z"/>
	<path class="st3" d="M4.7,10.6c0,0.1-0.1,0.2-0.3,0.2s-0.2-0.1-0.2-0.3c0-0.1,0.1-0.2,0.3-0.2C4.6,10.3,4.7,10.5,4.7,10.6z
		 M4.5,10.7c0.1,0,0.2-0.1,0.2-0.1c0-0.1-0.1-0.2-0.1-0.2c-0.1,0-0.2,0.1-0.2,0.1C4.3,10.6,4.4,10.7,4.5,10.7z"/>
</g>
<g id="Layer_2_1_" class="st0">
	<path class="st4" d="M6.7,7.7H1.6c-0.5,0-0.8,0.6-0.4,1l2,2v2.1c0,0.2,0.1,0.4,0.2,0.5l0.8,0.6c0.4,0.3,0.9,0,0.9-0.5v-2.7l2-2
		C7.4,8.4,7.2,7.7,6.7,7.7z M4.5,10.5v2.9l-0.8-0.6v-2.4L1.6,8.3h5.1L4.5,10.5z"/>
</g>
<g id="Layer_2_copy">
	<path class="st5" d="M6.7,7.7H1.6c-0.5,0-0.8,0.6-0.4,1l2,2v2.1c0,0.2,0.1,0.4,0.2,0.5l0.8,0.6c0.4,0.3,0.9,0,0.9-0.5v-2.7l2-2
		C7.4,8.4,7.2,7.7,6.7,7.7z M4.5,10.5v2.9l-0.8-0.6v-2.4L1.6,8.3h5.1L4.5,10.5z"/>
</g>
<g id="Folder">
	<path class="st6" d="M1.6,2L1.1,2.5v3.7c0.3-0.2,0.7-0.4,1-0.6V3h4.3l0.9,0.9L7.6,4h6.5v1H7.6L7.2,5.1L6.9,5.5
		C7.2,5.6,7.5,5.8,7.8,6l0,0h6.3v1.5l0,0v4l0,0V13H9.4c-0.2,0.4-0.4,0.7-0.7,1h5.7l0.5-0.5V9l0,0V3.5L14.6,3H7.8L7,2.1L6.6,2H1.6z"
		/>
	<g id="Extras">
	</g>
	<path class="st7" d="M8.7,7.5"/>
	<path class="st7" d="M4.5,10.6"/>
</g>
</svg>
