<?xml version="1.0" encoding="utf-8"?>
<!-- Generator: Adobe Illustrator 24.1.2, SVG Export Plug-In . SVG Version: 6.00 Build 0)  -->
<svg version="1.1" id="Layer_1" xmlns="http://www.w3.org/2000/svg" xmlns:xlink="http://www.w3.org/1999/xlink" x="0px" y="0px"
	 viewBox="0 0 16 16" style="enable-background:new 0 0 16 16;" xml:space="preserve">
<style type="text/css">
	.st0{fill-rule:evenodd;clip-rule:evenodd;fill:#424242;}
</style>
<path class="st0" d="M13,3.5V6h2.2l0.5,0.6l-2.6,7L12.5,14H8.7c0.3-0.3,0.5-0.6,0.7-1h2.7l2.4-6H8.7C8.5,6.7,8.3,6.5,8,6.3l0.1-0.1
	L8.5,6H12V4H6.5L6.1,3.9L5.3,3H1v3.3c-0.4,0.3-0.7,0.6-1,1V2.5L0.5,2h5l0.4,0.1L6.7,3h5.8L13,3.5z"/>
<path class="st0" d="M8,10.5C8,12.4,6.4,14,4.5,14S1,12.4,1,10.5S2.6,7,4.5,7S8,8.6,8,10.5z M4.5,13C5.9,13,7,11.9,7,10.5
	S5.9,8,4.5,8S2,9.1,2,10.5S3.1,13,4.5,13z"/>
</svg>
