<svg xmlns="http://www.w3.org/2000/svg" viewBox="0 0 32 32"><title>file_type_db</title>
<path d="M8.562,15.256A21.159,21.159,0,0,0,16,16.449a21.159,21.159,0,0,0,7.438-1.194c1.864-.727,2.525-1.535,2.525-2V9.7a10.357,10.357,0,0,1-2.084,1.076A22.293,22.293,0,0,1,16,12.078a22.36,22.36,0,0,1-7.879-1.3A10.28,10.28,0,0,1,6.037,9.7v3.55C6.037,13.724,6.7,14.528,8.562,15.256Z" style="fill:#c4c7ce"/>
<rect x="17" y="18.25" rx="1" ry="1" width="14" height="3.5" style="fill:#fffff4;stroke-width:0.9;stroke:rgb(196, 199, 206)" />
<path d="M16,30c5.5,0,9.963-1.744,9.963-3.894V23.269a10.5,10.5,0,0,1-1.535.762l-.157.063A23.487,23.487,0,0,1,16,25.445a23.422,23.422,0,0,1-8.271-1.351c-.054-.02-.106-.043-.157-.063a10.5,10.5,0,0,1-1.535-.762v2.837C6.037,28.256,10.5,30,16,30Z" style="fill:#c4c7ce"/>
<ellipse cx="16" cy="5.894" rx="9.963" ry="3.894" style="fill:#c4c7ce"/>
</svg>