<?xml version="1.0" encoding="utf-8"?>
<!-- Generator: Adobe Illustrator 25.0.1, SVG Export Plug-In . SVG Version: 6.00 Build 0)  -->
<svg version="1.1" id="Layer_1" xmlns="http://www.w3.org/2000/svg" xmlns:xlink="http://www.w3.org/1999/xlink" x="0px" y="0px"
	 viewBox="0 0 16 16" style="enable-background:new 0 0 16 16;" xml:space="preserve">
<style type="text/css">
	.st0{fill-rule:evenodd;clip-rule:evenodd;fill:#C5C5C5;}
	.st1{fill:#C5C5C5;}
</style>
<path class="st0" d="M1.5,2L1,2.5v3.7C1.3,6,1.7,5.8,2,5.6V3h4.3l0.9,0.9L7.5,4H14v1H7.5L7.1,5.1L6.8,5.5C7.1,5.6,7.4,5.8,7.7,6l0,0
	H14v1.5l0,0v4l0,0V13H9.4c-0.2,0.4-0.4,0.7-0.7,1h5.7l0.5-0.5V9l0,0V3.5L14.5,3H7.7L6.9,2.1L6.5,2H1.5z"/>
<g id="Layer_2_copy">
	<path class="st1" d="M6.7,7.7H1.6c-0.5,0-0.8,0.6-0.4,1l2,2v2.1c0,0.2,0.1,0.4,0.2,0.5l0.8,0.6c0.4,0.3,0.9,0,0.9-0.5v-2.7l2-2
		C7.4,8.4,7.2,7.7,6.7,7.7z M4.5,10.5v2.9l-0.8-0.6v-2.4L1.6,8.3h5.1L4.5,10.5z"/>
</g>
</svg>
