<?xml version="1.0" encoding="utf-8"?>
<!-- Generator: Adobe Illustrator 16.0.0, SVG Export Plug-In . SVG Version: 6.00 Build 0)  -->
<!DOCTYPE svg PUBLIC "-//W3C//DTD SVG 1.1//EN" "http://www.w3.org/Graphics/SVG/1.1/DTD/svg11.dtd">
<svg version="1.1" id="Layer_1" xmlns="http://www.w3.org/2000/svg" xmlns:xlink="http://www.w3.org/1999/xlink" x="0px" y="0px" width="16px" height="16px" viewBox="0 0 100 100" background-size="16px 16px;">
<g>
	<path fill="#C5C5C5" d="M50,12.774c-20.575,0-37.227,16.651-37.227,37.227c0,20.523,16.651,37.226,37.227,37.226
		c20.526,0,37.227-16.703,37.227-37.226C87.227,29.425,70.526,12.774,50,12.774z M50,83.906c-18.764,0-33.906-15.192-33.906-33.906
		c0-18.764,15.142-33.906,33.906-33.906c18.714,0,33.906,15.142,33.906,33.906C83.906,68.714,68.714,83.906,50,83.906z"/>
	<path fill="#C5C5C5" d="M80.235,49.295c-0.253,1.359-1.258,1.71-3.019,1.007c-1.006-3.321-4.226-3.924-7.546-4.428
		c1.708-1.458,4.325-2.816,5.685,0.504c1.861,0.553,2.665-0.605,4.526,0.553c1.058,0.101,2.063,0.05,3.12,0.151
		c-1.608-14.639-3.522-8.754-11.924-11.62c-3.422-4.276-4.226-1.258-3.872,6.338c-2.063,0.655-4.728,2.516-1.712,6.086
		c-8.552,7.042-4.274,15.396,6.641,13.029V74.45c6.489-6.693,11.221-14.139,11.168-23.846
		C82.901,48.893,81.896,48.441,80.235,49.295z"/>
	<polygon fill="#C5C5C5" points="52.617,62.728 52.465,62.526 52.315,62.273 52.063,62.072 51.761,61.924 51.409,61.723
		51.005,61.57 50.553,61.421 50,61.32 49.447,61.22 48.893,61.116 48.239,61.067 47.232,61.067 46.88,60.412 46.629,60.11
		46.428,59.761 46.177,59.407 45.925,59.105 45.674,58.752 45.423,58.45 45.12,58.101 44.818,57.799 44.517,57.497 44.215,57.192
		43.863,56.891 43.51,56.589 43.158,56.34 42.806,56.086 42.454,55.837 42.052,55.636 41.648,55.383 41.246,55.182 40.844,55.029
		40.392,54.88 39.939,54.728 39.485,54.579 38.983,54.479 38.53,54.426 38.028,54.378 37.473,54.325 36.971,54.325 36.418,54.325
		35.863,54.378 35.311,54.479 34.506,54.627 33.6,54.125 32.896,53.723 32.241,53.269 31.588,52.817 30.984,52.315 30.38,51.861
		29.827,51.357 29.324,50.855 28.822,50.403 28.418,49.95 28.016,49.446 27.664,49.044 27.312,48.642 27.061,48.24 26.86,47.886
		26.759,47.535 26.657,47.183 26.759,46.73 27.061,46.429 27.413,46.278 27.815,46.177 28.217,46.125 28.721,46.125 29.274,46.177
		29.827,46.278 30.482,46.429 31.186,46.63 31.889,46.931 32.645,47.283 33.499,47.685 34.305,48.189 34.858,48.542 34.958,48.491
		35.21,48.189 35.411,47.886 35.562,47.434 35.612,46.931 35.712,46.378 35.763,45.724 35.813,45.07 35.964,44.417 36.167,43.762
		36.518,43.058 37.021,42.455 37.674,41.9 38.48,41.397 39.536,41.046 40.593,40.845 41.095,40.391 41.75,39.838 42.454,39.335
		43.107,38.883 43.813,38.479 44.466,38.077 45.069,37.725 45.624,37.374 46.126,37.072 46.529,36.771 46.88,36.467 47.082,36.266
		47.182,36.115 47.182,36.015 47.182,35.964 47.082,35.864 46.78,35.713 46.277,35.462 45.875,35.16 45.423,34.809 45.019,34.455
		44.667,34.053 44.315,33.651 43.964,33.249 43.662,32.794 43.359,32.342 43.107,31.89 42.856,31.438 42.655,30.983 42.454,30.531
		42.253,30.079 42.152,29.626 42.002,29.172 41.901,28.771 41.851,28.368 41.801,27.966 41.801,27.564 41.851,27.16 41.901,26.809
		42.002,26.507 42.152,26.155 42.354,25.904 42.605,25.652 42.906,25.45 43.258,25.349 43.662,25.349 44.064,25.399 44.215,25.45
		44.265,25.399 44.265,25.349 44.114,25.098 43.863,24.796 43.562,24.444 43.158,24.093 42.655,23.741 42.152,23.438 41.598,23.136
		40.995,22.935 40.442,22.784 39.889,22.734 39.385,22.784 39.184,22.834 39.033,23.237 38.782,23.942 38.581,24.595 38.43,25.249
		38.279,25.904 38.128,26.507 38.028,27.11 37.926,27.715 37.877,28.318 37.825,28.871 37.775,29.425 37.725,29.928 37.674,30.431
		37.624,30.933 37.624,31.387 37.574,31.84 37.574,32.292 37.523,32.694 37.523,33.098 37.473,33.45 37.423,33.852 37.373,34.153
		37.272,34.455 37.172,34.756 37.021,35.06 36.87,35.311 36.669,35.563 36.418,35.763 36.116,35.864 35.813,35.964 35.461,36.015
		34.958,35.964 33.801,35.16 32.846,34.505 32.09,33.902 31.437,33.299 30.884,32.744 30.432,32.242 30.128,31.739 29.877,31.186
		29.776,30.682 29.727,30.229 29.827,29.727 29.978,29.325 30.229,28.921 30.482,28.519 30.784,28.167 31.135,27.866 31.487,27.514
		31.839,27.21 32.191,26.859 32.544,26.507 32.896,26.155 33.248,25.803 33.549,25.399 33.851,24.998 34.103,24.545 34.305,24.093
		34.456,23.588 34.557,23.036 34.607,22.483 34.557,21.829 34.456,21.124 34.203,21.225 33.801,21.476 33.298,21.779 32.795,22.081
		32.241,22.433 31.588,22.834 30.984,23.287 30.279,23.791 29.576,24.294 28.872,24.847 28.167,25.45 27.413,26.105 26.657,26.758
		25.903,27.463 25.2,28.268 24.444,29.072 23.74,29.878 23.037,30.782 22.331,31.689 21.728,32.694 21.073,33.701 20.52,34.756
		19.967,35.864 19.465,36.971 19.061,38.178 18.659,39.386 18.357,40.694 18.056,42.001 17.905,43.359 17.804,44.618 17.955,45.02
		18.207,45.472 18.558,45.924 18.91,46.378 19.264,46.831 19.716,47.283 20.168,47.685 20.671,48.139 21.226,48.542 21.778,48.943
		22.331,49.346 22.935,49.748 23.539,50.101 24.142,50.503 24.796,50.855 25.451,51.207 26.054,51.559 26.709,51.913 27.362,52.264
		27.965,52.617 28.621,52.967 29.224,53.32 29.827,53.674 30.432,53.976 30.984,54.325 31.538,54.679 32.04,55.029 32.544,55.383
		32.997,55.736 33.399,56.086 33.801,56.44 34.456,57.192 33.801,58 33.549,58.35 33.298,58.752 33.097,59.105 32.896,59.459
		32.795,59.81 32.695,60.163 32.595,60.513 32.544,60.814 32.544,61.168 32.544,61.47 32.595,61.823 32.645,62.124 32.695,62.426
		32.795,62.728 32.946,63.029 33.097,63.331 33.248,63.632 33.449,63.934 33.65,64.187 33.851,64.488 34.103,64.738 34.355,64.991
		34.607,65.244 34.908,65.493 35.21,65.747 35.511,65.947 35.863,66.197 36.167,66.398 36.518,66.6 36.87,66.801 37.624,67.206
		37.423,68.059 37.272,68.461 37.172,68.866 37.021,69.269 36.87,69.67 36.719,70.072 36.518,70.475 36.368,70.828 36.167,71.23
		36.016,71.58 35.813,71.934 35.662,72.336 35.461,72.689 35.311,73.039 35.16,73.393 35.009,73.743 34.858,74.146 34.707,74.499
		34.607,74.853 34.506,75.202 34.406,75.556 34.305,75.906 34.255,76.312 34.203,76.662 34.154,77.016 34.154,77.417 34.154,77.768
		34.203,78.173 34.255,78.575 34.355,78.978 34.355,79.077 34.607,79.025 35.16,79.025 35.662,79.178 36.064,79.479 36.418,79.781
		36.719,80.083 37.071,80.437 37.322,80.738 37.624,80.987 37.877,81.14 38.028,81.24 38.179,81.24 38.33,81.24 38.48,81.088
		38.782,80.786 39.284,80.083 39.839,79.428 40.392,78.724 40.945,78.121 41.498,77.466 42.103,76.862 42.655,76.312 43.258,75.705
		43.813,75.154 44.416,74.6 44.969,74.097 45.523,73.542 46.126,73.039 46.629,72.537 47.182,72.083 47.737,71.58 48.239,71.078
		48.691,70.627 49.194,70.121 49.648,69.67 50.05,69.216 50.452,68.766 50.854,68.26 51.208,67.809 51.51,67.354 51.812,66.853
		52.063,66.398 52.264,65.947 52.465,65.445 52.617,64.942 52.718,64.488 52.766,63.934 52.818,63.584 52.818,63.282 52.718,62.978
			"/>
	<path fill="#C5C5C5" d="M42.103,20.521c7.496,0.15,4.477,12.477,9.307,12.324c2.969-4.678,14.691-5.735,11.821-13.027
		c-6.991-2.416-14.69-2.768-23.241-1.409C39.385,19.313,40.693,20.471,42.103,20.521z"/>
</g>
</svg>
