<?xml version="1.0" ?>
<!DOCTYPE svg  PUBLIC '-//W3C//DTD SVG 1.1//EN'  'http://www.w3.org/Graphics/SVG/1.1/DTD/svg11.dtd'>
<svg enable-background="new 0 0 141.732 141.732" id="Livello_1" version="1.1" viewBox="0 0 141.732 141.732" xml:space="preserve" xmlns="http://www.w3.org/2000/svg" xmlns:xlink="http://www.w3.org/1999/xlink">
<g id="Livello_73">
<path style="fill:#c5c5c5" d="M115.823,70.659c-11.776,11.775-30.416,12.498-43.035,2.169l-4.567-4.568c-10.331-12.619-9.606-31.258,2.17-43.037   c12.548-12.546,32.888-12.544,45.432,0.004C128.368,37.775,128.37,58.112,115.823,70.659 M126.935,82.265   c18.819-18.818,18.819-49.332,0-68.151c-18.818-18.819-49.332-18.819-68.151,0C41.9,30.998,40.174,57.288,53.585,76.106   L2.353,127.339c-3.136,3.137-3.136,8.222,0,11.36c3.134,3.137,8.22,3.136,11.358,0l51.231-51.234   C83.761,100.876,110.052,99.149,126.935,82.265"/>
</g>
<g id="Livello_1_1_"/>
</svg>